<svg version="1.1" id="Layer_1" xmlns="http://www.w3.org/2000/svg" x="0px" y="0px"
     width="73" height="72" viewBox="0 0 73 72" xml:space="preserve">
<style type="text/css">
	.st0{fill-rule:evenodd;clip-rule:evenodd;}
</style>
<path class="st0" d="M36.5 16C35.9477 16 35.5 16.4477 35.5 17V35H17.5C16.9477 35 16.5 35.4477 16.5 36C16.5 36.5523 16.9477 37 17.5 37H35.5V55C35.5 55.5523 35.9477 56 36.5 56C37.0523 56 37.5 55.5523 37.5 55V37H55.5C56.0523 37 56.5 36.5523 56.5 36C56.5 35.4477 56.0523 35 55.5 35H37.5V17C37.5 16.4477 37.0523 16 36.5 16Z"/>
</svg>
