<svg width="20" height="20" viewBox="0 0 20 20" xmlns="http://www.w3.org/2000/svg">
<style type="text/css">
	.st0{fill-rule:evenodd;clip-rule:evenodd;}
</style>
<path fill-rule="evenodd" clip-rule="evenodd" d="M5.281e-05 10C2.36439e-05 15.5229 4.47725 20 10.0001 20C15.5228 20 20 15.523 20.0001 10.0002C20.0002 4.47738 15.5229 0.000183105 10.0001 0.000183105C4.47729 0.000183105 8.19759e-05 4.47726 5.281e-05 10ZM7.79882 14.0019C8.09877 14.3875 8.43085 14.5696 8.83792 14.5696C9.23428 14.5696 9.57707 14.3661 9.82346 14.0019L14.8368 6.18185C14.9868 5.94617 15.1154 5.67836 15.1154 5.43198C15.1154 4.87494 14.6333 4.5 14.0977 4.5C13.7549 4.5 13.455 4.68211 13.23 5.05705L8.79507 12.1486L6.72758 9.52411C6.45977 9.18131 6.20268 9.05276 5.87059 9.05276C5.31355 9.05276 4.88505 9.50268 4.88505 10.049C4.88505 10.3168 4.98147 10.5739 5.17429 10.8096L7.79882 14.0019Z"/>
</svg>

