<svg width="24" height="24" viewBox="0 0 24 24" fill="none" xmlns="http://www.w3.org/2000/svg">
<path d="M5.07692 22C4.48215 22 3.99253 21.5156 4.07235 20.9263C4.306 19.201 5.09824 17.5881 6.34315 16.3431C7.84344 14.8429 9.87827 14 12 14C14.1217 14 16.1566 14.8429 17.6569 16.3431C18.9018 17.5881 19.694 19.201 19.9276 20.9263C20.0075 21.5156 19.5178 22 18.9231 22C18.4133 22 18.0073 21.5843 17.9292 21.0805C17.7352 19.8297 17.1488 18.6635 16.2426 17.7574C15.1174 16.6321 13.5913 16 12 16C10.4087 16 8.88258 16.6321 7.75736 17.7574C6.8512 18.6635 6.26481 19.8297 6.07085 21.0805C5.99273 21.5843 5.58672 22 5.07692 22ZM12 13C8.685 13 6 10.315 6 7C6 3.685 8.685 1 12 1C15.315 1 18 3.685 18 7C18 10.315 15.315 13 12 13ZM12 11C14.21 11 16 9.21 16 7C16 4.79 14.21 3 12 3C9.79 3 8 4.79 8 7C8 9.21 9.79 11 12 11Z"/>
</svg>
